<?xml version="1.0" standalone="no"?>
<!DOCTYPE svg PUBLIC "-//W3C//DTD SVG 20010904//EN"
 "http://www.w3.org/TR/2001/REC-SVG-20010904/DTD/svg10.dtd">
<svg version="1.0" xmlns="http://www.w3.org/2000/svg"
 width="1251.000000pt" height="900.000000pt" viewBox="0 0 1251.000000 900.000000"
 preserveAspectRatio="xMidYMid meet">
<metadata>
Created by potrace 1.10, written by Peter Selinger 2001-2011
</metadata>
<g transform="translate(0.000000,900.000000) scale(0.100000,-0.100000)"
fill="#000000" stroke="none">
<path d="M2500 8937 c-14 -7 -36 -20 -50 -29 -19 -14 -45 -18 -122 -18 -100 0
-139 -9 -173 -39 -11 -10 -39 -23 -62 -31 -24 -7 -50 -21 -59 -32 -10 -10 -23
-18 -30 -18 -8 0 -21 -12 -31 -26 -9 -14 -39 -37 -67 -50 -90 -44 -107 -55
-117 -82 -5 -14 -19 -32 -29 -39 -11 -8 -24 -33 -31 -56 -6 -23 -21 -53 -34
-67 -13 -14 -26 -41 -30 -60 -4 -19 -17 -46 -30 -60 -17 -19 -25 -42 -30 -93
-6 -56 -12 -73 -34 -93 l-26 -24 0 -474 0 -475 27 -28 26 -28 4 -272 3 -273
28 -25 c24 -23 27 -33 27 -86 0 -95 4 -99 116 -99 94 0 95 0 129 34 18 19 39
36 46 38 9 3 12 29 10 94 -2 81 -4 91 -29 117 l-27 28 -5 274 -5 273 -25 27
-25 27 -3 306 c-4 378 1 446 34 475 17 14 24 31 24 56 1 56 15 106 38 129 12
12 24 37 28 57 3 20 15 40 26 46 27 14 93 82 101 102 4 10 15 20 24 24 10 3
27 17 38 31 17 19 34 25 89 31 54 6 73 12 87 30 16 19 32 23 120 30 89 7 105
11 121 30 34 43 188 41 228 -2 18 -18 36 -23 122 -29 87 -5 104 -9 117 -27 12
-16 34 -23 91 -30 59 -8 79 -15 93 -32 15 -18 33 -25 90 -31 54 -5 75 -12 87
-28 11 -15 33 -22 89 -29 49 -6 80 -16 94 -29 12 -11 40 -25 62 -32 22 -7 49
-21 61 -32 12 -10 38 -23 58 -29 20 -5 48 -21 62 -34 17 -15 39 -25 58 -25 49
-1 109 -17 118 -33 4 -8 24 -18 43 -21 20 -4 50 -20 68 -35 17 -16 48 -31 68
-35 20 -3 46 -17 59 -31 13 -14 30 -25 37 -25 7 0 18 -12 24 -27 16 -42 136
-151 179 -163 20 -5 45 -19 55 -30 10 -11 22 -20 28 -20 5 0 24 -7 42 -16 27
-12 38 -13 55 -4 13 7 58 14 101 17 l79 6 79 76 c91 89 113 101 185 101 65 0
113 -15 146 -46 24 -22 29 -23 121 -15 75 6 105 13 135 32 38 23 46 24 225 24
155 0 190 3 205 16 50 41 73 49 151 49 105 0 138 -11 210 -69 l61 -50 172 -2
c151 -3 174 -1 185 14 18 25 57 36 138 38 82 3 118 -12 187 -78 35 -32 38 -33
140 -36 95 -4 105 -6 123 -28 18 -22 28 -24 136 -29 95 -5 125 -10 161 -29 27
-14 74 -26 119 -31 83 -9 107 -15 133 -38 10 -8 47 -16 85 -19 51 -4 80 -13
116 -34 26 -16 53 -29 61 -29 17 0 77 -30 94 -47 20 -20 95 -16 123 6 13 10
38 22 56 25 19 4 57 30 90 62 32 30 62 54 68 54 20 1 61 46 75 84 14 35 21 41
64 52 26 7 58 21 70 32 11 11 39 25 61 33 22 7 47 21 57 31 11 12 37 20 78 25
43 4 70 13 89 28 17 15 51 27 100 34 54 9 78 17 88 31 8 11 21 20 29 20 8 0
22 4 32 9 106 54 129 61 204 61 69 0 80 3 100 25 17 18 41 27 93 35 49 8 75
17 85 31 13 16 34 21 120 28 90 8 106 13 121 32 15 20 27 23 127 27 139 6 196
-2 225 -32 17 -19 36 -25 91 -29 61 -4 72 -8 89 -31 12 -17 28 -26 46 -26 40
0 68 -25 76 -67 5 -27 21 -51 60 -88 43 -41 56 -60 61 -93 4 -28 14 -46 30
-57 21 -13 24 -24 25 -73 1 -94 14 -151 37 -168 19 -13 22 -25 22 -94 0 -68
-3 -82 -22 -99 -27 -26 -37 -85 -37 -225 -1 -98 -3 -112 -22 -132 -29 -31 -38
-86 -39 -227 0 -111 -1 -118 -24 -138 -19 -17 -26 -35 -31 -91 -5 -50 -13 -76
-30 -96 -15 -19 -24 -47 -29 -92 -5 -47 -14 -72 -30 -90 -13 -14 -26 -40 -30
-59 -6 -35 -61 -96 -138 -155 -26 -19 -39 -39 -44 -62 -3 -19 -15 -41 -26 -48
-12 -9 -24 -33 -29 -61 -5 -26 -20 -60 -34 -77 -35 -41 -33 -86 3 -118 16 -14
31 -31 33 -38 5 -16 97 -26 167 -17 50 6 57 11 146 100 79 79 95 100 101 135
5 30 14 44 31 52 13 6 24 15 24 20 0 4 13 22 29 38 25 27 29 40 35 118 6 70
12 93 32 119 13 17 24 44 24 60 1 50 18 104 39 124 13 12 21 32 21 52 1 53 18
110 38 127 17 13 20 32 25 154 5 131 7 140 31 165 25 26 26 31 27 157 0 163 9
220 37 240 21 14 22 23 22 173 0 145 -2 159 -20 176 -26 24 -40 76 -40 154 0
52 -4 69 -21 87 -22 24 -38 79 -39 133 0 23 -9 44 -27 64 -286 309 -347 361
-439 373 -38 4 -65 15 -87 33 l-31 26 -243 4 c-134 1 -259 0 -277 -3 -19 -4
-50 -18 -70 -31 -31 -21 -49 -25 -108 -25 -61 0 -79 -4 -125 -30 -44 -25 -64
-30 -119 -30 -53 0 -76 -5 -122 -30 -104 -54 -161 -79 -199 -86 -21 -3 -62
-19 -90 -35 -29 -16 -68 -29 -86 -29 -41 0 -96 -17 -119 -37 -9 -9 -49 -21
-89 -29 -40 -8 -82 -22 -93 -33 -12 -10 -39 -24 -61 -31 -22 -7 -49 -20 -60
-30 -11 -10 -38 -23 -60 -30 -22 -7 -49 -20 -60 -30 -11 -10 -38 -23 -60 -30
-22 -7 -49 -20 -60 -30 -11 -10 -38 -23 -60 -30 -22 -7 -49 -21 -60 -31 -18
-16 -139 -52 -147 -44 -2 2 -50 11 -106 19 -56 9 -113 23 -126 31 -13 9 -67
23 -119 31 -57 8 -110 22 -131 35 -27 16 -60 23 -124 27 -72 4 -92 9 -115 28
-16 13 -32 24 -35 25 -4 0 -70 4 -147 8 -120 7 -146 11 -185 32 -44 24 -49 24
-385 29 -336 6 -341 6 -390 30 l-50 25 -345 0 c-342 0 -345 0 -390 -23 -37
-20 -69 -25 -187 -32 -115 -8 -150 -13 -185 -31 -35 -18 -71 -24 -195 -32
l-151 -10 -47 31 c-31 20 -65 33 -101 38 -45 5 -59 12 -76 35 -12 16 -27 29
-33 29 -7 0 -19 8 -29 18 -9 11 -35 25 -58 33 -24 7 -65 35 -93 62 -50 48 -93
67 -151 67 -17 0 -48 11 -68 25 -23 16 -61 29 -97 34 -37 5 -68 15 -82 28 -12
12 -38 24 -57 28 -19 4 -48 18 -63 31 -16 13 -41 27 -55 30 -27 5 -32 8 -87
44 -19 13 -47 20 -76 20 -33 0 -57 7 -83 25 -23 16 -58 27 -94 31 -33 4 -65
14 -77 25 -27 24 -69 39 -113 39 -23 0 -50 10 -74 27 -33 22 -53 27 -121 31
-68 3 -89 9 -121 31 -38 25 -43 26 -210 28 -116 1 -179 -2 -196 -10z"/>
<path d="M3334 5926 c-17 -6 -38 -17 -46 -23 -8 -7 -57 -17 -108 -23 -69 -7
-102 -15 -122 -30 -16 -12 -52 -25 -81 -30 -65 -11 -86 -19 -109 -42 -10 -10
-26 -18 -36 -18 -10 0 -40 -14 -66 -30 -27 -17 -62 -34 -80 -37 -17 -3 -40
-14 -51 -23 -11 -10 -43 -28 -72 -40 -28 -12 -54 -28 -57 -36 -3 -8 -10 -14
-16 -14 -6 0 -33 -24 -61 -52 -27 -29 -54 -57 -58 -62 -5 -4 -17 -17 -27 -27
-11 -11 -31 -32 -45 -47 -15 -15 -30 -40 -33 -57 -4 -16 -18 -41 -32 -55 -65
-66 -84 -94 -84 -122 0 -28 -18 -52 -97 -131 l-28 -27 -3 -368 c-4 -416 -1
-465 33 -494 18 -15 24 -34 29 -87 5 -54 12 -73 31 -91 12 -12 26 -38 30 -58
4 -20 20 -51 36 -70 16 -18 29 -37 29 -43 0 -5 11 -14 24 -18 17 -7 25 -20 30
-50 3 -23 15 -49 27 -59 11 -9 27 -29 35 -44 8 -16 19 -28 24 -28 13 0 85 -72
100 -99 6 -12 17 -21 26 -21 8 0 19 -11 24 -25 5 -14 21 -30 34 -36 13 -6 27
-20 29 -30 3 -10 17 -23 31 -29 14 -5 26 -17 26 -25 0 -9 13 -24 29 -33 17 -9
35 -27 40 -39 6 -13 17 -23 26 -23 8 0 21 -13 30 -30 9 -16 22 -30 29 -30 8 0
21 -11 29 -24 11 -16 29 -26 60 -30 27 -4 53 -16 67 -31 12 -13 40 -27 62 -30
28 -5 42 -14 50 -31 6 -13 19 -26 29 -29 9 -3 24 -16 33 -29 10 -16 28 -26 59
-30 25 -4 52 -15 62 -26 10 -11 39 -26 65 -35 27 -9 54 -22 60 -30 6 -8 33
-21 60 -30 29 -10 51 -24 55 -35 9 -27 142 -34 510 -26 l309 6 26 25 c24 23
37 26 125 30 90 4 100 6 119 29 12 13 35 27 52 31 18 3 40 15 49 25 10 11 41
26 69 34 28 9 56 24 63 34 7 12 29 22 55 26 27 4 53 17 70 34 41 40 61 60 86
84 12 12 22 26 22 32 0 33 23 86 39 91 10 3 23 17 30 32 7 15 21 33 31 40 10
7 21 31 25 54 4 23 16 50 27 61 12 12 27 41 34 66 8 25 23 54 34 64 19 18 20
32 20 348 l0 330 -25 16 c-17 11 -27 29 -31 54 -4 22 -16 47 -29 58 -13 12
-26 37 -30 61 -4 25 -14 45 -25 51 -22 12 -40 67 -40 121 0 25 -8 45 -25 63
-14 15 -25 31 -25 36 0 5 -29 39 -65 75 -44 45 -65 74 -65 91 0 13 -11 34 -25
46 -17 15 -27 36 -31 70 -4 31 -14 54 -25 62 -11 7 -24 28 -30 47 -7 19 -22
45 -34 59 -18 19 -25 42 -30 95 -6 58 -11 74 -32 91 -16 14 -26 35 -30 63 -3
23 -13 47 -23 54 -9 7 -25 24 -34 40 -10 15 -24 27 -32 27 -7 0 -18 9 -24 20
-15 29 -139 150 -186 182 -21 15 -55 34 -74 43 -19 9 -50 27 -69 40 -19 14
-44 25 -57 25 -13 0 -26 5 -30 11 -18 30 -90 49 -190 49 -82 0 -104 3 -115 17
-31 37 -72 43 -271 42 -116 -1 -205 -6 -224 -13z m3 -318 c27 -26 32 -27 169
-30 132 -3 143 -5 180 -29 21 -14 52 -29 68 -33 35 -9 74 -39 161 -123 36 -35
69 -63 74 -63 5 0 14 -13 19 -29 6 -16 20 -39 31 -50 20 -20 21 -31 21 -250 0
-210 -2 -231 -18 -243 -10 -7 -24 -27 -31 -45 -7 -18 -23 -39 -36 -47 -13 -9
-25 -30 -29 -52 -5 -26 -24 -53 -64 -94 -31 -32 -61 -63 -67 -69 -33 -35 -79
-63 -112 -67 -56 -8 -96 -25 -116 -51 -10 -13 -23 -23 -30 -23 -6 0 -21 -10
-34 -22 -17 -16 -41 -23 -95 -28 -51 -4 -88 -14 -123 -33 -48 -26 -55 -27
-205 -27 l-155 0 -44 30 c-24 17 -49 30 -54 30 -6 0 -22 10 -36 23 -15 13 -45
30 -69 37 -24 8 -48 22 -53 32 -5 10 -18 18 -29 18 -10 0 -27 13 -37 30 -9 17
-25 33 -35 36 -10 3 -21 16 -24 29 -3 13 -14 27 -24 30 -27 8 -31 28 -37 150
-4 93 -9 115 -28 145 -44 66 -41 205 4 237 15 10 21 25 21 51 1 61 17 112 43
136 14 13 28 32 31 44 4 12 15 24 25 27 12 3 23 22 30 49 6 24 18 46 26 50 9
3 23 22 31 41 8 19 19 35 24 35 5 0 26 11 46 25 20 14 54 30 76 36 21 5 41 16
44 24 3 8 27 21 52 30 26 9 67 27 92 41 42 23 53 24 167 21 117 -3 124 -4 150
-29z m1139 -2107 c22 -17 46 -37 54 -46 8 -9 27 -29 43 -45 26 -27 27 -30 27
-150 l0 -122 -39 -39 -39 -39 -127 0 -127 0 -40 41 c-38 39 -39 43 -45 123 -3
45 -2 113 1 150 7 60 12 71 47 106 46 45 52 47 140 49 59 1 71 -2 105 -28z"/>
<path d="M339 5750 c-15 -4 -45 -26 -68 -48 -39 -38 -41 -42 -41 -100 0 -56 2
-62 40 -100 26 -26 53 -42 78 -47 20 -4 46 -15 57 -25 11 -9 38 -23 60 -30 22
-7 50 -23 63 -36 13 -13 29 -24 37 -24 8 0 36 -13 62 -29 27 -16 65 -32 85
-35 21 -4 44 -16 51 -27 8 -11 24 -22 36 -24 45 -8 67 -18 89 -38 16 -15 42
-23 88 -28 45 -4 72 -13 87 -27 12 -11 41 -26 64 -33 25 -7 50 -23 59 -36 15
-24 19 -25 119 -21 l103 3 36 39 c33 36 36 45 36 98 0 47 -4 62 -21 76 -11 9
-27 29 -34 43 -22 42 -99 87 -160 94 -33 5 -67 17 -86 31 -18 13 -48 27 -67
30 -18 4 -44 17 -57 30 -12 12 -40 26 -61 30 -22 3 -51 18 -66 31 -22 21 -42
27 -116 34 -84 9 -91 11 -131 48 -22 21 -60 46 -84 56 -52 21 -73 31 -117 56
-36 19 -94 23 -141 9z"/>
<path d="M8586 5490 c-45 -23 -72 -30 -115 -30 -55 0 -106 -13 -146 -38 -67
-40 -162 -82 -189 -82 -17 -1 -56 -14 -86 -30 -30 -17 -68 -30 -84 -30 -45 0
-106 -22 -117 -42 -5 -10 -16 -18 -24 -18 -7 0 -23 -13 -35 -30 -12 -16 -28
-30 -36 -30 -8 0 -14 -5 -14 -10 0 -6 -30 -42 -67 -80 -38 -37 -83 -86 -101
-107 -18 -21 -43 -50 -56 -65 -13 -15 -27 -41 -31 -58 -4 -16 -15 -35 -26 -40
-10 -6 -26 -24 -34 -40 -9 -17 -22 -30 -30 -30 -8 0 -15 -4 -15 -9 0 -4 -15
-25 -34 -44 -29 -31 -35 -46 -41 -102 -5 -47 -14 -71 -30 -89 -17 -19 -25 -42
-30 -94 -5 -55 -12 -74 -30 -90 -12 -11 -26 -37 -29 -58 -4 -22 -18 -50 -32
-64 -18 -20 -25 -42 -30 -90 -5 -52 -12 -69 -31 -85 -23 -19 -25 -29 -30 -140
-4 -96 -9 -124 -24 -140 -34 -38 -41 -102 -37 -343 l3 -231 26 -28 c14 -15 29
-36 32 -46 4 -9 18 -22 31 -28 18 -9 26 -22 31 -53 4 -24 18 -52 34 -68 14
-15 33 -34 41 -43 32 -34 77 -62 116 -73 27 -8 45 -20 52 -37 6 -14 17 -25 23
-25 6 0 24 -11 39 -24 18 -14 48 -26 81 -30 29 -4 76 -18 103 -31 39 -18 77
-25 160 -30 101 -7 111 -10 134 -34 l24 -26 370 0 370 0 19 24 c15 19 33 25
90 31 48 5 77 14 92 28 12 11 40 25 62 32 22 7 49 20 60 29 31 26 72 41 115
41 25 0 52 9 76 25 20 14 49 25 64 25 55 0 88 12 99 36 6 13 17 24 24 24 8 0
22 9 31 19 10 11 41 29 69 41 29 13 58 31 64 40 7 10 28 21 47 24 18 4 44 17
57 30 13 12 32 25 42 29 9 4 21 17 26 30 7 19 19 25 50 30 43 5 103 55 130
105 6 12 17 22 24 22 19 1 83 62 101 98 9 17 21 32 25 32 5 0 17 22 26 49 9
27 22 52 30 54 7 3 29 30 49 59 26 40 37 70 42 112 5 38 15 67 29 85 16 18 25
46 30 91 5 46 13 72 30 90 18 20 24 41 29 104 5 67 10 84 31 106 25 26 25 29
25 187 0 159 0 162 -26 193 -22 26 -27 43 -32 115 -4 73 -8 87 -27 99 -18 12
-23 28 -29 87 -5 55 -12 78 -31 101 -13 16 -27 45 -31 66 -8 40 -6 38 -155
189 -78 80 -109 105 -142 114 -23 7 -53 22 -67 35 -14 12 -42 26 -63 29 -21 4
-49 18 -61 30 -15 15 -41 25 -82 30 -35 4 -77 18 -104 34 -42 24 -55 26 -184
29 -131 4 -142 6 -179 30 l-40 27 -231 3 -231 2 -59 -30z m519 -281 c22 -6 50
-19 62 -29 12 -9 50 -20 83 -24 48 -6 67 -13 91 -37 16 -16 34 -29 39 -29 5 0
16 -13 25 -30 9 -16 22 -30 30 -30 9 0 21 -11 27 -25 6 -14 21 -31 33 -39 15
-10 24 -29 28 -57 4 -31 13 -49 31 -62 26 -19 26 -19 26 -169 0 -147 -1 -151
-24 -173 -16 -15 -27 -39 -31 -69 -5 -33 -14 -52 -31 -62 -13 -9 -26 -24 -29
-35 -4 -10 -13 -19 -21 -19 -8 0 -24 -16 -35 -35 -12 -19 -26 -35 -31 -35 -6
0 -23 -11 -39 -25 -16 -13 -46 -27 -65 -31 -24 -4 -39 -14 -46 -30 -6 -13 -14
-24 -18 -24 -4 0 -24 -13 -44 -29 -20 -16 -51 -33 -69 -37 -18 -3 -45 -17 -60
-30 -16 -13 -41 -24 -57 -24 -33 0 -76 -17 -104 -39 -14 -13 -56 -17 -210 -21
-192 -5 -192 -5 -225 -32 -30 -26 -40 -28 -116 -28 -76 0 -86 2 -116 28 -31
26 -38 27 -158 31 l-125 3 -95 96 c-108 110 -110 115 -110 282 0 131 10 187
38 206 15 11 21 26 21 52 1 57 15 107 38 130 12 12 25 40 28 63 4 26 15 46 29
55 12 8 27 25 33 38 6 13 19 27 30 30 10 4 24 18 30 31 6 14 19 25 27 25 8 0
21 11 27 25 6 14 26 34 45 45 18 10 33 23 33 28 0 5 21 15 48 22 26 7 56 21
67 30 11 9 40 25 65 34 25 10 52 24 61 32 9 9 30 19 45 24 44 13 671 12 719
-1z m-404 -1882 c20 -9 51 -33 68 -52 40 -46 44 -110 7 -150 -13 -14 -27 -44
-30 -69 -5 -32 -17 -52 -46 -81 l-39 -38 -93 -1 -94 0 -42 41 -42 41 0 89 0
90 40 41 c23 23 54 43 72 47 55 11 102 29 127 47 13 10 26 16 30 15 3 -2 22
-11 42 -20z"/>
<path d="M12028 5507 c-14 -7 -34 -20 -45 -28 -10 -9 -35 -22 -57 -29 -21 -7
-47 -21 -57 -31 -12 -12 -33 -19 -58 -19 -50 0 -102 -17 -123 -41 -9 -11 -20
-19 -25 -19 -6 0 -22 -13 -36 -30 -20 -22 -36 -30 -61 -30 -39 0 -97 -22 -116
-44 -7 -9 -20 -16 -30 -16 -10 0 -23 -7 -30 -15 -7 -8 -37 -29 -66 -46 -30
-17 -54 -35 -54 -40 0 -6 -13 -15 -30 -20 -16 -6 -32 -19 -35 -29 -3 -10 -22
-24 -41 -30 -19 -7 -47 -22 -62 -34 -15 -12 -47 -28 -72 -36 -25 -8 -55 -24
-67 -37 -12 -13 -26 -23 -31 -23 -5 0 -15 -13 -22 -30 -7 -16 -18 -30 -26 -30
-21 0 -34 -34 -34 -92 0 -45 4 -58 28 -80 15 -14 33 -33 40 -42 10 -13 32 -16
107 -16 84 0 96 2 122 24 15 13 45 28 66 34 23 6 52 27 77 54 21 24 46 50 55
58 8 8 26 25 39 38 13 12 28 22 35 22 6 0 16 9 23 21 7 11 36 32 63 46 28 14
56 34 63 44 9 13 25 19 51 19 23 0 48 8 64 20 14 11 45 27 69 36 23 8 52 23
63 34 11 11 49 24 88 30 40 7 75 20 85 30 9 10 35 23 58 29 22 6 49 19 58 30
10 10 34 22 53 26 20 3 56 23 79 43 43 36 43 38 44 101 0 61 -2 65 -39 103
-56 56 -145 75 -213 45z"/>
<path d="M235 4429 c-24 -6 -57 -25 -82 -49 -41 -38 -43 -42 -43 -99 0 -57 2
-61 42 -99 27 -26 54 -42 79 -46 23 -4 42 -14 52 -30 16 -23 19 -24 207 -28
190 -4 191 -4 215 -30 19 -21 36 -27 93 -33 56 -5 74 -12 91 -31 20 -23 24
-24 177 -24 l156 0 39 40 c37 38 39 43 39 103 l0 63 -50 41 c-40 33 -60 41
-107 47 -38 4 -65 14 -80 28 -24 23 -87 36 -170 37 -29 1 -57 7 -65 14 -32 33
-66 40 -203 45 -122 4 -143 7 -162 24 -37 34 -142 46 -228 27z"/>
<path d="M11095 3950 c-29 -5 -55 -16 -62 -27 -14 -20 -25 -32 -48 -51 -23
-19 -21 -126 3 -144 9 -7 25 -25 35 -40 l17 -28 670 0 669 0 41 37 c39 36 40
39 40 103 0 65 -1 67 -37 97 -78 61 -36 58 -683 60 -327 0 -617 -3 -645 -7z"/>
<path d="M2442 3090 c-21 -27 -28 -30 -81 -30 -32 0 -79 -3 -105 -6 l-46 -7 0
-48 c0 -40 4 -51 24 -64 17 -11 26 -29 31 -61 4 -30 13 -49 29 -59 13 -9 28
-26 34 -40 6 -14 18 -25 26 -25 9 0 20 -9 26 -20 6 -11 24 -27 40 -35 16 -8
31 -24 35 -35 3 -11 13 -20 20 -20 8 0 21 -13 30 -30 9 -16 22 -30 30 -30 9 0
34 -12 57 -27 22 -16 50 -33 62 -40 11 -7 27 -20 34 -30 7 -10 34 -23 60 -28
36 -8 50 -16 60 -38 7 -15 19 -27 27 -27 8 0 22 -11 30 -24 9 -13 30 -26 47
-30 17 -3 54 -17 82 -30 28 -13 70 -29 93 -35 24 -7 55 -23 69 -36 15 -14 35
-25 46 -25 10 0 23 -11 29 -24 10 -22 20 -25 88 -31 108 -9 130 -14 141 -35 5
-10 23 -21 40 -25 16 -4 46 -18 67 -32 24 -17 54 -27 84 -28 25 -2 60 -11 78
-21 19 -11 47 -26 64 -35 l31 -16 0 -191 1 -192 33 -29 c17 -17 32 -37 32 -45
0 -9 11 -18 25 -22 13 -3 27 -15 30 -26 4 -10 18 -23 32 -29 14 -5 27 -18 30
-29 4 -13 17 -21 42 -25 66 -11 65 -10 72 -150 6 -124 7 -129 33 -148 20 -14
26 -27 26 -55 1 -58 17 -115 38 -132 15 -11 21 -33 25 -85 5 -58 11 -74 31
-90 13 -11 27 -36 31 -55 11 -60 15 -68 34 -73 13 -3 20 -18 25 -51 5 -33 14
-51 31 -62 13 -8 26 -26 29 -40 4 -13 10 -24 15 -24 14 0 101 -86 101 -99 0
-7 13 -17 29 -22 15 -6 33 -21 39 -34 6 -13 19 -26 30 -29 10 -4 24 -18 30
-31 l12 -25 159 0 159 0 46 43 c25 24 46 49 46 56 0 6 11 16 25 21 14 5 29 20
34 33 5 14 18 27 29 29 16 4 20 18 25 78 3 39 11 78 17 85 8 10 47 14 135 17
121 3 126 4 150 30 25 28 27 28 148 28 67 0 127 -4 133 -8 6 -4 16 -17 22 -28
9 -17 21 -22 52 -22 22 0 44 -3 48 -6 5 -3 12 -38 16 -78 5 -60 10 -77 30 -93
13 -11 29 -30 35 -42 9 -18 21 -23 49 -23 43 0 55 -6 71 -37 12 -23 15 -23
200 -23 l189 0 46 43 c25 24 46 49 46 55 0 7 11 14 24 18 13 3 28 17 35 30 6
13 22 29 36 34 14 5 25 17 25 27 0 9 9 27 21 39 11 12 27 39 34 61 7 21 22 42
34 48 11 5 21 13 21 18 0 4 28 35 61 68 53 52 62 67 67 104 3 32 11 49 27 59
15 10 26 30 30 56 4 24 15 46 26 53 10 6 26 33 34 58 20 59 42 69 149 69 107
0 147 8 153 31 5 19 15 23 75 33 23 4 42 15 52 31 9 14 23 25 31 25 8 0 18 12
21 26 4 14 17 30 31 35 l24 9 -3 160 c-3 154 -4 160 -26 176 -16 11 -22 24
-20 42 3 23 10 28 50 37 26 5 56 20 68 33 19 20 30 22 118 22 109 0 159 11
178 38 11 16 30 20 116 24 88 5 109 9 140 30 24 17 57 27 99 31 45 5 66 12 76
26 17 25 44 30 167 35 90 4 101 6 122 29 14 16 39 27 68 31 26 4 51 15 58 25
7 10 35 24 62 32 30 8 51 21 54 31 5 20 17 24 98 33 47 5 67 12 82 30 12 13
37 26 61 30 28 5 47 15 57 30 11 17 29 26 60 31 31 4 50 14 60 29 9 15 29 25
55 29 24 4 50 17 63 31 13 14 28 25 34 25 6 0 20 13 31 29 13 18 33 31 56 35
19 4 46 17 60 30 14 14 45 27 69 30 33 5 46 13 54 31 7 14 17 25 23 25 11 0
99 86 99 97 0 9 -88 93 -98 93 -5 0 -15 13 -21 29 -7 15 -23 33 -37 39 -14 7
-24 20 -24 32 0 29 -18 60 -34 60 -8 0 -21 -11 -30 -25 -9 -14 -23 -25 -32
-25 -8 0 -17 -8 -21 -17 -13 -35 -92 -101 -130 -108 -21 -4 -45 -17 -55 -31
-11 -13 -25 -24 -33 -24 -7 0 -20 -11 -28 -24 -9 -13 -33 -30 -54 -37 -21 -6
-50 -22 -65 -34 -15 -12 -44 -26 -64 -30 -21 -4 -48 -18 -61 -31 -12 -13 -33
-24 -47 -24 -13 0 -38 -12 -56 -26 -22 -19 -47 -28 -89 -33 -61 -7 -125 -41
-166 -88 -14 -16 -39 -25 -84 -32 -40 -7 -72 -18 -86 -31 -17 -16 -43 -22
-114 -29 -69 -6 -100 -14 -121 -30 -18 -12 -56 -25 -96 -30 -43 -7 -74 -17
-88 -30 -19 -18 -43 -22 -154 -30 -121 -9 -134 -12 -151 -33 -18 -21 -28 -23
-146 -28 -119 -5 -128 -7 -146 -29 -15 -18 -32 -25 -72 -28 -68 -6 -102 -20
-122 -49 -8 -13 -21 -24 -28 -24 -6 0 -20 -14 -30 -31 -17 -30 -19 -31 -65
-24 -26 4 -50 12 -54 18 -27 44 -12 42 -334 42 -216 0 -308 -3 -311 -11 -2 -6
-10 -20 -18 -30 -12 -17 -28 -19 -169 -19 -155 0 -156 0 -180 -26 -15 -16 -40
-29 -66 -33 -24 -4 -49 -15 -59 -27 -12 -15 -35 -23 -85 -29 -50 -6 -75 -15
-93 -32 -22 -21 -35 -23 -140 -26 -136 -4 -161 0 -173 33 -5 14 -15 25 -22 25
-7 0 -31 21 -53 46 -52 59 -65 72 -112 114 -22 19 -45 45 -52 58 -6 12 -18 22
-26 22 -8 0 -22 11 -31 25 -12 19 -25 25 -53 25 -51 0 -106 17 -148 46 -26 17
-49 24 -85 24 -39 0 -54 5 -71 24 -12 13 -31 26 -42 29 -11 3 -109 7 -217 9
l-198 2 -41 28 c-23 15 -56 29 -73 29 -17 1 -68 3 -112 5 -66 2 -88 8 -117 27
-30 20 -52 25 -151 31 -98 6 -122 10 -151 30 -18 13 -57 26 -86 30 -29 4 -71
18 -93 31 -23 12 -52 26 -65 30 -12 4 -38 17 -57 30 -19 13 -57 26 -91 30 -38
5 -67 15 -86 31 -16 13 -39 24 -52 24 -13 0 -37 11 -53 25 -16 14 -47 28 -68
33 -26 5 -42 15 -49 30 -5 12 -13 22 -16 22 -3 0 -23 13 -44 30 -20 16 -53 34
-71 39 -19 5 -48 21 -65 35 -17 14 -38 26 -47 26 -39 1 -148 93 -178 152 -8
15 -19 28 -25 28 -12 0 -99 88 -99 100 0 5 -9 11 -19 15 -11 3 -29 21 -40 40
-11 19 -24 35 -29 35 -4 0 -18 -13 -30 -30z m2345 -1265 c17 -24 26 -26 127
-32 101 -6 108 -7 117 -30 5 -13 16 -26 24 -29 9 -4 22 -19 31 -35 8 -16 21
-29 29 -29 8 0 21 -13 30 -30 9 -16 22 -30 30 -30 8 0 19 -9 25 -21 15 -28 85
-99 98 -99 5 0 17 -11 25 -24 10 -15 33 -28 64 -35 26 -7 55 -21 63 -32 11
-13 32 -21 70 -25 85 -8 98 -13 105 -33 4 -15 19 -21 59 -26 71 -9 111 0 124
30 10 22 17 23 117 27 100 3 107 4 128 29 12 15 37 30 57 33 19 4 42 16 51 28
14 18 32 23 95 29 62 6 81 12 94 29 8 11 33 25 55 31 22 6 50 22 62 36 l21 26
344 -2 c311 -2 344 -3 355 -19 17 -25 55 -70 81 -96 31 -33 28 -50 -15 -65
-21 -7 -48 -23 -61 -35 -20 -18 -40 -22 -140 -27 -116 -5 -152 -12 -152 -31 0
-5 -16 -16 -35 -24 -21 -8 -37 -23 -40 -37 -4 -12 -16 -27 -28 -32 -17 -8 -24
-23 -30 -64 -7 -39 -14 -55 -28 -58 -19 -5 -24 -15 -35 -75 -4 -23 -13 -39
-24 -43 -12 -4 -23 -24 -31 -56 -9 -36 -20 -54 -35 -59 -12 -5 -24 -20 -28
-34 -3 -13 -15 -27 -26 -31 -17 -5 -40 -57 -40 -91 0 -6 -9 -18 -20 -25 -12
-8 -26 -35 -33 -64 -11 -46 -14 -50 -54 -60 -23 -5 -50 -18 -60 -28 -27 -24
-53 -21 -90 11 -25 20 -35 39 -42 77 -5 27 -15 51 -22 54 -7 2 -25 17 -39 33
-17 18 -41 31 -64 35 -26 4 -41 13 -48 29 -6 13 -24 27 -39 33 -16 5 -29 17
-29 25 0 33 -37 37 -301 34 l-261 -3 -19 -24 c-18 -22 -31 -25 -121 -32 -89
-6 -103 -9 -118 -30 -14 -18 -32 -24 -89 -30 -62 -7 -76 -12 -100 -38 -16 -17
-33 -31 -39 -31 -12 0 -32 -77 -32 -125 0 -47 -28 -60 -104 -51 -48 6 -58 12
-71 35 -8 16 -23 31 -34 34 -13 3 -22 17 -26 41 -4 20 -16 43 -27 50 -23 16
-37 70 -38 139 0 41 -3 49 -25 59 -17 8 -27 22 -31 47 -4 20 -18 48 -31 63
-23 24 -26 37 -31 134 -4 87 -8 110 -24 123 -23 20 -23 34 2 56 17 15 20 31
20 92 0 68 -2 74 -24 84 -14 7 -27 22 -30 35 -4 13 -15 28 -26 34 -12 6 -44
33 -72 60 -34 33 -64 52 -88 56 -47 9 -114 75 -105 104 3 11 15 20 26 20 20 0
61 17 109 45 20 12 73 15 262 15 l236 0 19 -25z"/>
</g>
</svg>
